<svg width="16" height="16" viewBox="0 0 16 16" fill="none" xmlns="http://www.w3.org/2000/svg">
<g id="ic-shopping-basket-24px">
<path id="Shape" fill-rule="evenodd" clip-rule="evenodd" d="M11.4733 6.00001L8.55329 1.62668C8.42663 1.44001 8.21329 1.34668 7.99996 1.34668C7.78663 1.34668 7.57329 1.44001 7.44663 1.63335L4.52663 6.00001H1.33329C0.966626 6.00001 0.666626 6.30001 0.666626 6.66668C0.666626 6.72668 0.673293 6.78668 0.693293 6.84668L2.38663 13.0267C2.53996 13.5867 3.05329 14 3.66663 14H12.3333C12.9466 14 13.46 13.5867 13.62 13.0267L15.3133 6.84668L15.3333 6.66668C15.3333 6.30001 15.0333 6.00001 14.6666 6.00001H11.4733ZM5.99996 6.00001L7.99996 3.06668L9.99996 6.00001H5.99996ZM6.66663 10C6.66663 10.7333 7.26663 11.3333 7.99996 11.3333C8.73329 11.3333 9.33329 10.7333 9.33329 10C9.33329 9.26668 8.73329 8.66668 7.99996 8.66668C7.26663 8.66668 6.66663 9.26668 6.66663 10Z" fill="black"/>
</g>
</svg>
